<svg id="Layer_1" data-name="Layer 1" width="100%" height="100%" xmlns="http://www.w3.org/2000/svg" viewBox="0 0 300 300"><defs><style>.cls-1{fill:#666;}.cls-2{fill:#414141;}</style></defs><title>FBgreyLogo1Asset 2</title><g id="Layer_1-2" data-name="Layer 1-2"><path class="cls-1" d="M144.6.08c4.28,0,8.56-.09,12.84,0,2.33.07,4.66.5,7,.79,1.42.18,2.9-.14,4.24.88.52.39,1.56.06,2.34.19a17.39,17.39,0,0,1,2.24.65c.15.05.26.22.4.25l5.83,1A13.52,13.52,0,0,1,180.9,4c2.95.83,5.95,1.52,8.8,2.61,2.45.93,4.75,2.23,7.38,2.75a27.38,27.38,0,0,1,4.12,1.49,6.67,6.67,0,0,1,.78.31c3,1.58,6,3.21,9,4.76,2.12,1.09,4.36,2,6.41,3.16,2.66,1.57,5.2,3.36,7.77,5.08l6.08,4.14a19.31,19.31,0,0,1,1.66,1.19c5.31,4.51,10.71,8.92,15.44,14.06,2.78,3,5.42,6.17,8.14,9.26.63.71,1.32,1.39,2,2.08A11.43,11.43,0,0,1,259.55,56q3.4,5.1,6.79,10.23c.94,1.42,1.88,2.85,2.74,4.33s1.57,2.94,2.4,4.39a28.53,28.53,0,0,1,1.61,2.58c.61,1.39,1.64,2.53,2,4.09a22.16,22.16,0,0,0,1.65,3.48c.78,1.81,1.45,3.66,2.2,5.48.62,1.54,1.31,3.06,1.91,4.61.36.92.6,1.89.88,2.84a48.82,48.82,0,0,1,1.68,5.81c.44,2.8,1.89,5.29,2.31,8,.48,3,1.79,6,1.33,9.16a.48.48,0,0,0,.05.35c1.51,1.85.61,4.06.93,6.08a11.7,11.7,0,0,0,.49,1.52,4.62,4.62,0,0,1,.29,1.22q0,14.16.07,28.32c0,.24.06.56-.06.7-1.53,1.83-.54,4-.92,6a13.74,13.74,0,0,1-.57,1.75,6,6,0,0,0-.36,1.32c-.05,1.67.11,3.33-.71,4.92a11.12,11.12,0,0,0-.4,2.22c-.19.79-.52,1.54-.75,2.31-1.07,3.67-2.12,7.34-3.19,11-.08.26-.19.52-.27.79-.75,2.46-1.39,5-2.27,7.39-.79,2.15-1.84,4.21-2.79,6.29-1.13,2.47-2.24,4.94-3.43,7.38-.83,1.72-1.7,3.43-2.69,5.06-1.23,2-2.58,4-3.9,6q-3.74,5.56-7.51,11.09c-.42.62-1,1.14-1.44,1.75-3.4,4.6-7.59,8.47-11.5,12.6-2,2.09-3.85,4.39-6.17,6s-4,3.63-6.2,5.15c-5.44,3.75-10.56,8-16.47,11-2.79,1.45-5.62,2.85-8.42,4.3-1.37.71-2.65,1.6-4.06,2.21-3.06,1.31-6.17,2.51-9.29,3.71-2.64,1-5.3,2-8,2.92a7.85,7.85,0,0,1-1.52.29c-.39,0-.92-.1-1.17.1-1.4,1.18-3.29.72-4.81,1.51a10.4,10.4,0,0,1-2.2.54c-.8.2-1.58.5-2.39.64-1,.17-2,.17-2.94.34a10.23,10.23,0,0,0-1.61.56,4.78,4.78,0,0,1-1.23.34c-1.08,0-2.17,0-3.24.08a6.72,6.72,0,0,0-1.51.51,4.26,4.26,0,0,1-1.2.36c-1.28.06-2.56,0-3.83.09q-1.58.22-3.12.6a8.4,8.4,0,0,1-1.64.28H133.86a2,2,0,0,1-.94-.08c-2.32-1.31-4.85-.65-7.28-.88a9.21,9.21,0,0,1-1.84-.6,4.35,4.35,0,0,0-1.11-.3c-1.08-.06-2.16,0-3.23-.08a10.3,10.3,0,0,1-1.62-.55c-.71-.19-1.45-.3-2.17-.47-1.07-.25-2.13-.53-3.19-.78-.39-.09-.8-.09-1.18-.2-.93-.25-1.86-.55-2.79-.83-.11,0-.21-.11-.33-.14-3-.69-6.13-1.31-9.16-2.1a17.46,17.46,0,0,1-3-1.41c-.54-.26-1.06-.56-1.62-.77-2.35-.85-4.72-1.68-7.08-2.52a7.35,7.35,0,0,1-.77-.32c-2.15-1-4.31-1.95-6.44-3-.57-.27-1-.71-1.61-1-2.42-1.27-4.85-2.52-7.28-3.78-.24-.13-.5-.24-.73-.39-2.18-1.43-4.36-2.85-6.51-4.32-1.33-.91-2.59-1.92-3.91-2.84-1.9-1.33-3.86-2.57-5.74-3.92a25.86,25.86,0,0,1-2.4-2.16c-1.5-1.41-2.69-3.12-4.68-4-.84-.39-1.34-1.45-2.1-2.09a88.91,88.91,0,0,1-12.41-13.46c-1.36-1.76-2.71-3.47-4.2-5.12a31.74,31.74,0,0,1-3.37-5c-2.41-3.93-5.6-7.36-7.15-11.82-.34-1-1.26-1.76-1.75-2.71-.77-1.55-1.41-3.16-2.1-4.75-.14-.33-.24-.68-.38-1-1-2.19-2-4.36-2.92-6.59-1.36-3.34-2.65-6.71-3.94-10.09-.29-.78-.39-1.63-.64-2.42s-.62-1.67-.94-2.5a2.41,2.41,0,0,1-.15-.33c-.38-1.93-.74-3.86-1.11-5.79-.1-.51-.18-1-.31-1.51a12.92,12.92,0,0,1-.65-2.2,7.9,7.9,0,0,0-.79-3.51c-.57-1-.2-2.49-.32-3.76a9.79,9.79,0,0,0-.45-1.69A7.71,7.71,0,0,1,1,163.07C1,155.69-.38,148.36.1,141c.33-5,.5-10,.89-14.91.2-2.46.72-4.89,1.12-7.32a4.78,4.78,0,0,1,.3-.74A9.46,9.46,0,0,0,3,116c.12-1.24-.14-2.46.74-3.63.4-.54.13-1.56.28-2.33s.46-1.72.7-2.58c.08-.3.18-.59.24-.9s0-.82.14-1c1.14-1.4.86-3.18,1.38-4.75.6-1.8,1.08-3.63,1.69-5.43.17-.49.69-.86.88-1.35.69-1.76,1.2-3.59,2-5.32,1.39-3.13,2.92-6.19,4.36-9.3.59-1.25,1-2.58,1.66-3.8.52-1,1.25-1.89,1.86-2.84,2.56-4,5.07-8.11,7.68-12.12a49,49,0,0,1,3.19-4c1.59-1.94,3.51-3.68,4.75-5.81,2.25-3.85,5.81-6.42,8.74-9.57a121.63,121.63,0,0,1,9.24-8.33c2.16-1.88,4.34-3.74,6.55-5.55a28.06,28.06,0,0,1,2.48-1.58c1.82-1.19,3.6-2.43,5.46-3.56,3.16-1.93,6.36-3.8,9.56-5.67A37.61,37.61,0,0,1,80,14.73c2.13-1,4.35-1.77,6.42-2.84a64.11,64.11,0,0,1,11.76-4.5c2.15-.63,4.2-1.61,6.31-2.4.32-.12.72-.06,1-.16.54-.16,1.06-.39,1.6-.58a3.9,3.9,0,0,1,1.11-.31,26.43,26.43,0,0,0,5-.79c2.22-.49,4.36-1.69,6.77-1.24a2,2,0,0,0,.83-.09,65,65,0,0,1,17-1.82h6.84Zm1.07,27.22c-.76-.1-1.22-.17-1.68-.21a10.05,10.05,0,0,0-1.1,0,5.16,5.16,0,0,0-.78-.08c-1.56.18-3.1.51-4.66.58-2.55.11-5.12,0-7.67.13a7.38,7.38,0,0,0-2.1.68c-.25.09-.49.32-.74.32a19.43,19.43,0,0,0-7,1.21A36.52,36.52,0,0,1,114.35,31a5.4,5.4,0,0,0-.67.25,33.8,33.8,0,0,1-5.53,1.83c-4,.61-7.43,2.84-11.26,3.91a3.94,3.94,0,0,0-.63.36c-1.62.85-3.23,1.71-4.87,2.54C89.31,41,87.21,42,85.12,43a5.36,5.36,0,0,0-.49.34c-1.63,1.12-3.28,2.22-4.9,3.37l-7.45,5.41c-.77.56-1.48,1.21-2.22,1.82-2,1.66-4.13,3.25-6.09,5a47.14,47.14,0,0,0-3.67,3.94c-1.47,1.68-2.88,3.4-4.32,5.1-1.6,1.88-3.26,3.72-4.78,5.67-1.17,1.5-2,3.28-3.24,4.7-3.38,3.88-5.46,8.54-8,12.94a107.6,107.6,0,0,0-5,11.44c-1.21,2.91-1.76,6-3.15,8.92a21.54,21.54,0,0,0-1.29,5.66c-.33,1.9-.52,3.83-.77,5.75a.67.67,0,0,1-.09.34c-1.23,1.2-.74,2.74-.84,4.18a12.08,12.08,0,0,1-.34,2.07,9.2,9.2,0,0,0-.59,2q-.11,12.24-.09,24.48a5.86,5.86,0,0,0,.44,1.69,11.89,11.89,0,0,1,.62,1.73c.11.79-.07,1.62.06,2.39.45,2.73.92,5.46,1.51,8.17.36,1.69,1,3.33,1.42,5,.53,2,.94,4,1.56,5.92.78,2.44,1.7,4.83,2.59,7.23.69,1.88,1.43,3.74,2.17,5.61a7.17,7.17,0,0,0,.53.93c1.32,2.24,2.93,4.36,3.87,6.75,1.45,3.68,4,6.64,6.13,9.81A61.59,61.59,0,0,0,59,223.64a6.11,6.11,0,0,1,.86,1.28,7.35,7.35,0,0,0,1,1.41q4.73,4.33,9.5,8.61a11,11,0,0,0,1,.8c2,1.32,4,2.64,6,4,2.73,1.81,5.41,3.71,8.19,5.45s5.59,3.75,8.86,4.94a40.13,40.13,0,0,1,4.56,2,57.14,57.14,0,0,0,6.55,2.53c.63.23,1.31.34,1.94.58,1.63.62,3.21,1.41,4.88,1.9,1.89.56,3.86.9,5.8,1.27,1.64.31,3.4.24,4.91.85,2.1.85,4.21.74,6.35.83a6.25,6.25,0,0,1,1.46.42,5.38,5.38,0,0,0,1.51.46h22.8c1.11,0,2.31.32,3.26-.68.16-.18.6-.12.92-.15,1.79-.13,3.6-.11,5.35-.41,2.41-.42,4.79-1.05,7.17-1.63,1.07-.27,2.11-.7,3.18-1,1.87-.49,3.81-.76,5.63-1.39,3.52-1.21,7-2.54,10.45-3.94a101.2,101.2,0,0,0,14.22-7.35,34.48,34.48,0,0,0,4.46-2.91c1.54-1.3,3.69-1.81,4.73-3.76.16-.29.66-.39,1-.59a11.4,11.4,0,0,0,1.8-1.1c1.26-1.1,2.41-2.33,3.67-3.43,1.11-.95,2.37-1.73,3.46-2.69a38.74,38.74,0,0,0,3.42-3.36c1.5-1.7,3.71-2.83,4.35-5.26.06-.23.39-.38.59-.58a21,21,0,0,0,2-2q4.08-5.48,8.06-11c1.07-1.48,2.08-3,3-4.58s1.67-3.08,2.45-4.64,1.47-3.1,2.18-4.65c.26-.58.42-1.21.69-1.79,1.19-2.55,2.4-5.09,3.59-7.63a4.26,4.26,0,0,0,.19-.7c.32-1.22.58-2.46,1-3.66.2-.6.93-1.14.93-1.7a14.23,14.23,0,0,1,1-4.64,41.3,41.3,0,0,0,1.09-5.51,9,9,0,0,1,.33-1,10,10,0,0,0,.68-2c.19-1.66.2-3.34.38-5,.12-1.09.5-2.15.61-3.23s0-2.4.07-3.6-.35-2.72.77-3.84a1.1,1.1,0,0,0,.13-.69c-.14-3.38-.35-6.77-.4-10.16a20.29,20.29,0,0,0-.46-2.79c-.16-1.14,0-2.32-.07-3.47-.3-3.23-.68-6.45-1-9.67a1.4,1.4,0,0,0-.1-.35c-.32-1-.69-2.07-.95-3.13-.81-3.16-1.51-6.35-2.38-9.5-.34-1.27-1.05-2.44-1.5-3.69-1-2.68-1.83-5.39-2.76-8.08A8.83,8.83,0,0,0,251.8,97c-.65-1.35-1.9-2.43-1.81-4.12a1,1,0,0,0-.22-.55L245.42,85l-1.71-3c-.77-1.3-1.46-2.64-2.31-3.88s-1.69-2.13-2.51-3.21a83.92,83.92,0,0,0-5.36-7.09c-4-4.27-8.16-8.32-12.28-12.44a4.81,4.81,0,0,0-1-.66,18.17,18.17,0,0,1-1.77-1.12,74.79,74.79,0,0,0-6.24-5.15c-4.06-2.69-8.25-5.19-12.5-7.57-2.42-1.36-5.24-2-7.56-3.55a33.86,33.86,0,0,0-8.68-3.67c-3.72-1.14-7.32-3-11.36-2.94a1.53,1.53,0,0,1-.46-.14l-3.17-.85c-.57-.16-1.14-.34-1.73-.46-1-.19-2-.37-3-.52-.78-.11-1.71.07-2.33-.3a7.26,7.26,0,0,0-3.42-.8c-2.3-.16-4.6-.33-6.9-.45-.62,0-1.26.16-1.88.15a18.34,18.34,0,0,1-2.12-.31c-.39-.74-1.08.06-1.46.26Z" transform="translate(0 0.02)"/><path class="cls-2" d="M145.67,27.3c.38-.2,1.07-1,1.46-.24.94.14,1.52.29,2.12.31s1.26-.18,1.88-.15c2.3.12,4.6.29,6.9.45a7.26,7.26,0,0,1,3.42.8c.62.37,1.55.19,2.33.3,1,.15,2,.33,3,.52.59.12,1.16.3,1.73.46l3.17.85a1.53,1.53,0,0,0,.46.14c4,0,7.64,1.8,11.36,2.94a33.86,33.86,0,0,1,8.68,3.67c2.32,1.5,5.14,2.19,7.56,3.55,4.25,2.38,8.44,4.88,12.5,7.57a74.79,74.79,0,0,1,6.24,5.15,18.17,18.17,0,0,0,1.77,1.12,4.81,4.81,0,0,1,1,.66c4.12,4.12,8.32,8.17,12.28,12.44a83.92,83.92,0,0,1,5.36,7.09c.82,1.08,1.75,2.08,2.51,3.21s1.54,2.58,2.31,3.88l1.71,2.86,4.35,7.3a1,1,0,0,1,.22.55c-.09,1.69,1.16,2.77,1.81,4.12a8.83,8.83,0,0,1,.56,1.05c.93,2.69,1.81,5.4,2.76,8.08.45,1.25,1.16,2.42,1.5,3.69.87,3.15,1.57,6.34,2.38,9.5.26,1.06.63,2.09.95,3.13a1.4,1.4,0,0,1,.1.35c.35,3.22.73,6.44,1,9.67.11,1.15-.09,2.33.07,3.47a20.29,20.29,0,0,1,.46,2.79c.05,3.39.26,6.78.4,10.16a1.1,1.1,0,0,1-.13.69c-1.12,1.12-.7,2.53-.77,3.84s0,2.41-.07,3.6-.49,2.14-.61,3.23c-.18,1.66-.19,3.34-.38,5a10,10,0,0,1-.68,2,9,9,0,0,0-.33,1,41.3,41.3,0,0,1-1.09,5.51,14.23,14.23,0,0,0-1,4.64c0,.56-.73,1.1-.93,1.7-.39,1.2-.65,2.44-1,3.66a4.26,4.26,0,0,1-.19.7c-1.19,2.54-2.4,5.08-3.59,7.63-.27.58-.43,1.21-.69,1.79-.71,1.55-1.42,3.11-2.18,4.65s-1.56,3.14-2.45,4.64-1.94,3.1-3,4.58q-4,5.55-8.06,11a21,21,0,0,1-2,2c-.2.2-.53.35-.59.58-.64,2.43-2.85,3.56-4.35,5.26a38.74,38.74,0,0,1-3.42,3.36c-1.09,1-2.35,1.74-3.46,2.69s-2.41,2.33-3.67,3.43a11.4,11.4,0,0,1-1.8,1.1c-.34.2-.84.3-1,.59-1,1.95-3.19,2.46-4.73,3.76a34.48,34.48,0,0,1-4.46,2.91,101.2,101.2,0,0,1-14.22,7.35c-3.45,1.4-6.93,2.73-10.45,3.94-1.82.63-3.76.9-5.63,1.39-1.07.27-2.11.7-3.18,1-2.38.58-4.76,1.21-7.17,1.63-1.75.3-3.56.28-5.35.41a1.68,1.68,0,0,0-.92.15c-1,1-2.15.68-3.26.68h-22.8a5.38,5.38,0,0,1-1.51-.46,6.25,6.25,0,0,0-1.46-.42c-2.14-.09-4.25,0-6.35-.83-1.51-.61-3.27-.54-4.91-.85-1.94-.37-3.91-.71-5.8-1.27-1.67-.49-3.25-1.28-4.88-1.9-.63-.24-1.31-.35-1.94-.58A58.16,58.16,0,0,1,99,252.06a40.13,40.13,0,0,0-4.56-2c-3.27-1.19-6-3.14-8.86-4.94s-5.46-3.64-8.19-5.45c-2-1.33-4-2.65-6-4a11,11,0,0,1-1-.8q-4.77-4.29-9.5-8.61a7.35,7.35,0,0,1-1-1.41,6.11,6.11,0,0,0-.86-1.28,61.46,61.46,0,0,1-10.29-12.28c-2.15-3.17-4.68-6.13-6.13-9.81-.94-2.39-2.55-4.51-3.87-6.75a7.17,7.17,0,0,1-.53-.93c-.74-1.87-1.48-3.73-2.17-5.61-.89-2.4-1.81-4.79-2.59-7.23-.62-1.94-1-4-1.56-5.92-.46-1.68-1.06-3.32-1.42-5-.59-2.71-1.06-5.44-1.51-8.17-.13-.77.05-1.6-.06-2.39a11.89,11.89,0,0,0-.62-1.73,5.86,5.86,0,0,1-.44-1.69q0-12.24.09-24.48a9.2,9.2,0,0,1,.59-2,12.08,12.08,0,0,0,.34-2.07c.1-1.44-.39-3,.84-4.18a.67.67,0,0,0,.09-.34c.25-1.92.44-3.85.77-5.75a21.54,21.54,0,0,1,1.29-5.66c1.39-2.88,1.94-6,3.15-8.92a109.48,109.48,0,0,1,5-11.37c2.48-4.4,4.56-9.06,7.94-12.93,1.24-1.42,2.07-3.2,3.24-4.7,1.52-2,3.18-3.79,4.78-5.67,1.44-1.7,2.85-3.42,4.32-5.1A47.18,47.18,0,0,1,64,59c2-1.76,4.06-3.35,6.09-5,.74-.61,1.45-1.26,2.22-1.82q3.7-2.72,7.45-5.37c1.62-1.15,3.27-2.25,4.9-3.37a5.36,5.36,0,0,1,.49-.34c2.09-1,4.19-2.06,6.27-3.12,1.64-.83,3.25-1.69,4.87-2.54a3.94,3.94,0,0,1,.63-.36c3.83-1.07,7.24-3.3,11.26-3.91a33.8,33.8,0,0,0,5.53-1.83,5.4,5.4,0,0,1,.67-.25A36.62,36.62,0,0,0,120,30a19.43,19.43,0,0,1,7-1.21c.25,0,.49-.23.74-.32a7.38,7.38,0,0,1,2.1-.68c2.55-.1,5.12,0,7.67-.13,1.56-.07,3.1-.4,4.66-.58a5.16,5.16,0,0,1,.78.08H144A14.54,14.54,0,0,1,145.67,27.3Z" transform="translate(0 0.02)"/><path class="cls-1" d="M120.72,144.43H118.5v.27l-1-.83-.89.79c-.65-.4-1.38-1.46-2,.13-.63-.53-1-1-2-.4a4,4,0,0,1-3,.11,2.6,2.6,0,0,1-1.3-2c-.09-6.8,0-13.6,0-20.4,0-.88,0-1.76-.07-2.64,0-1.13.47-1.63,1.68-1.61,4.44.07,8.88.06,13.32.06,1.77,0,1.87-.14,1.88-1.93,0-8.52,0-17,.06-25.56a7,7,0,0,1,.61-1.82c.13-.37.22-.74.33-1.12.51-1.79,1-3.6,1.53-5.38,1.41-4.72,5.11-7.61,8.57-10.68a5.16,5.16,0,0,1,1.39-.64,5.74,5.74,0,0,0,1.3-.56c1-.81,2.37-.9,3.25-1.47,1.78-1.14,3.93-.33,5.61-1.65.63-.5,1.93-.15,2.92-.19a7.08,7.08,0,0,0,1.78-.1c3.27-1,6.61-.9,10-.84,5.55.09,11.11,0,16.67,0,1.8,0,1.83,0,1.83,1.78V91.9c0,1.56-.19,1.74-1.71,1.74H161.38A4.49,4.49,0,0,0,157,97.79V98c-1.6,2-.73,4.38-.81,6.58-.13,3.92,0,7.84-.06,11.76,0,1.2.48,1.49,1.58,1.48h23.19c0,1.19.44,2.35-.62,3.29-.17.16-.1.61-.1.93-.08,3.31.31,6.72-.33,9.92a62.56,62.56,0,0,0-.77,10.68c0,.81-.49,1.13-1.24,1.13h-19c-2.07,0-2.63.54-2.71,2.6v75.36c0,1.94,0,2-1.91,2H126.67c-1.65,0-1.68,0-1.68-1.68V147a5.35,5.35,0,0,0-.49-2,1,1,0,0,0-1.21-.73.93.93,0,0,0-.35.16c-.22.12-.69.16-.83,0C121.37,143.52,121,144,120.72,144.43Z" transform="translate(0 0.02)"/></g></svg>