<svg width="110%" height="110%"  xmlns="http://www.w3.org/2000/svg" viewBox="0 0 400 400"><defs><style>.cls-1{fill:#666;}.cls-2{fill:#414141;}</style></defs><title>TwitterLogoGreyAsset 1</title><g id="Layer_2" data-name="Layer 2"><g id="Layer_1-2" data-name="Layer 1"><path class="cls-1" d="M0,183.77C-.69,82.9,81.22.69,183.08,0c97.26-.65,180.36,80.82,183.29,175.56,3.44,111.11-86.64,190.4-180.85,191C82.94,367.1.71,286.14,0,183.77Z"/><path class="cls-2" d="M182.76,331.6C108.07,334.9,34.57,270,34.23,183.25,33.91,103,102.15,34.43,181.74,34.38c88.81-.05,149.34,71.94,150.83,147C334.12,259.77,266.21,335,182.76,331.6Zm-81-77.64c2.55,1.48,3.55,2.11,4.58,2.65,64.07,33.49,142.72-4.94,155.46-76.54,2.73-15.33,4.34-30.33,17.94-40.49.11-.09,0-.46,0-1.21l-15.89,2.88,12.5-16.83c-2.49.39-3.44.35-4.23.69-10.28,4.3-19,2.44-29.11-3-24.55-13.25-53.8,5.52-53.87,33.44,0,9.61-.7,10-10.32,8.31-24.12-4.25-45-14.71-62.51-31.89-2-1.91-4.15-3.59-6.63-5.72-7.39,18.75-2.94,34.18,10.75,48.83l-15-1.88C107,191,118,200.83,133.13,208.66L120.34,212c5.45,14.79,17.77,20,31.83,24.57C137.78,250,120,250.17,101.71,254Z"/><path class="cls-1" d="M101.71,254c18.31-3.79,36.07-4,50.46-17.35-14.06-4.62-26.38-9.78-31.83-24.57l12.79-3.38C118,200.83,107,191,105.43,173.21l15,1.88c-13.69-14.65-18.14-30.08-10.75-48.83,2.48,2.13,4.67,3.81,6.63,5.72,17.5,17.18,38.39,27.64,62.51,31.89,9.62,1.69,10.29,1.3,10.32-8.31.07-27.92,29.32-46.69,53.87-33.44,10.06,5.43,18.83,7.29,29.11,3,.79-.34,1.74-.3,4.23-.69l-12.5,16.83,15.89-2.88c0,.75.1,1.12,0,1.21-13.6,10.16-15.21,25.16-17.94,40.49-12.74,71.6-91.39,110-155.46,76.54C105.26,256.07,104.26,255.44,101.71,254Z"/></g></g></svg>